<?xml version="1.0" encoding="UTF-8" standalone="no"?><!DOCTYPE svg PUBLIC "-//W3C//DTD SVG 1.1//EN" "http://www.w3.org/Graphics/SVG/1.1/DTD/svg11.dtd"><svg width="100%" height="100%" viewBox="0 0 32825 32825" version="1.1" xmlns="http://www.w3.org/2000/svg" xmlns:xlink="http://www.w3.org/1999/xlink" xml:space="preserve" xmlns:serif="http://www.serif.com/" style="fill-rule:evenodd;clip-rule:evenodd;stroke-linecap:round;stroke-linejoin:round;stroke-miterlimit:1.5;"><rect x="10.44" y="4.19" width="32814.6" height="32799.9" style="fill:#ff8800;stroke:#fff;stroke-width:4.17px;"/><g opacity="0.08"><g id="Down-Arrows" serif:id="Down Arrows"><path d="M10.44,4.19l3280.23,-0l-1640.11,1640l-1640.11,-1640Z" style="fill:#373737;"/><path d="M3290.67,4.19l3280.2,-0l-1640.09,1640l-1640.11,-1640Z" style="fill:#373737;"/><path d="M6570.87,4.19l3280.23,-0l-1640.09,1640l-1640.14,-1640Z" style="fill:#373737;"/><path d="M9851.09,4.19l3280.23,-0l-1640.11,1640l-1640.11,-1640Z" style="fill:#373737;"/><path d="M13131.3,4.19l3280.23,-0l-1640.11,1640l-1640.11,-1640Z" style="fill:#373737;"/><path d="M16411.5,4.19l3280.2,-0l-1640.07,1640l-1640.14,-1640Z" style="fill:#373737;"/><path d="M19691.7,4.19l3280.23,-0l-1640.09,1640l-1640.14,-1640Z" style="fill:#373737;"/><path d="M22972,4.19l3280.3,-0l-1640.04,1640l-1640.25,-1640Z" style="fill:#373737;"/><path d="M26252.3,4.19l3280.09,-0l-1640.04,1640l-1640.04,-1640Z" style="fill:#373737;"/><path d="M29532.4,4.19l3280.32,-0l-1640.04,1640l-1640.28,-1640Z" style="fill:#373737;"/><path d="M10.44,3284.18l3280.23,0l-1640.11,1639.97l-1640.11,-1639.97Z" style="fill:#373737;"/><path d="M3290.67,3284.18l3280.2,0l-1640.09,1639.97l-1640.11,-1639.97Z" style="fill:#373737;"/><path d="M6570.87,3284.18l3280.23,0l-1640.09,1639.97l-1640.14,-1639.97Z" style="fill:#373737;"/><path d="M9851.09,3284.18l3280.23,0l-1640.11,1639.97l-1640.11,-1639.97Z" style="fill:#373737;"/><path d="M13131.3,3284.18l3280.23,0l-1640.11,1639.97l-1640.11,-1639.97Z" style="fill:#373737;"/><path d="M16411.5,3284.18l3280.2,0l-1640.07,1639.97l-1640.14,-1639.97Z" style="fill:#373737;"/><path d="M19691.7,3284.18l3280.23,0l-1640.09,1639.97l-1640.14,-1639.97Z" style="fill:#373737;"/><path d="M22972,3284.18l3280.3,0l-1640.04,1639.97l-1640.25,-1639.97Z" style="fill:#373737;"/><path d="M26252.3,3284.18l3280.09,0l-1640.04,1639.97l-1640.04,-1639.97Z" style="fill:#373737;"/><path d="M29532.4,3284.18l3280.32,0l-1640.04,1639.97l-1640.28,-1639.97Z" style="fill:#373737;"/><path d="M10.44,6564.16l3280.23,-0l-1640.11,1640l-1640.11,-1640Z" style="fill:#373737;"/><path d="M3290.67,6564.16l3280.2,-0l-1640.09,1640l-1640.11,-1640Z" style="fill:#373737;"/><path d="M6570.87,6564.16l3280.23,-0l-1640.09,1640l-1640.14,-1640Z" style="fill:#373737;"/><path d="M9851.09,6564.16l3280.23,-0l-1640.11,1640l-1640.11,-1640Z" style="fill:#373737;"/><path d="M13131.3,6564.16l3280.23,-0l-1640.11,1640l-1640.11,-1640Z" style="fill:#373737;"/><path d="M16411.5,6564.16l3280.2,-0l-1640.07,1640l-1640.14,-1640Z" style="fill:#373737;"/><path d="M19691.7,6564.16l3280.23,-0l-1640.09,1640l-1640.14,-1640Z" style="fill:#373737;"/><path d="M22972,6564.16l3280.3,-0l-1640.04,1640l-1640.25,-1640Z" style="fill:#373737;"/><path d="M26252.3,6564.16l3280.09,-0l-1640.04,1640l-1640.04,-1640Z" style="fill:#373737;"/><path d="M29532.4,6564.16l3280.32,-0l-1640.04,1640l-1640.28,-1640Z" style="fill:#373737;"/><path d="M10.44,9844.13l3280.23,-0l-1640.11,1640.02l-1640.11,-1640.02Z" style="fill:#373737;"/><path d="M3290.67,9844.13l3280.2,-0l-1640.09,1640.02l-1640.11,-1640.02Z" style="fill:#373737;"/><path d="M6570.87,9844.13l3280.23,-0l-1640.09,1640.02l-1640.14,-1640.02Z" style="fill:#373737;"/><path d="M9851.09,9844.13l3280.23,-0l-1640.11,1640.02l-1640.11,-1640.02Z" style="fill:#373737;"/><path d="M13131.3,9844.13l3280.23,-0l-1640.11,1640.02l-1640.11,-1640.02Z" style="fill:#373737;"/><path d="M16411.5,9844.13l3280.2,-0l-1640.07,1640.02l-1640.14,-1640.02Z" style="fill:#373737;"/><path d="M19691.7,9844.13l3280.23,-0l-1640.09,1640.02l-1640.14,-1640.02Z" style="fill:#373737;"/><path d="M22972,9844.13l3280.3,-0l-1640.04,1640.02l-1640.25,-1640.02Z" style="fill:#373737;"/><path d="M26252.3,9844.13l3280.09,-0l-1640.04,1640.02l-1640.04,-1640.02Z" style="fill:#373737;"/><path d="M29532.4,9844.13l3280.32,-0l-1640.04,1640.02l-1640.28,-1640.02Z" style="fill:#373737;"/><path d="M10.44,13124.1l3280.23,0l-1640.11,1640l-1640.11,-1640Z" style="fill:#373737;"/><path d="M3290.67,13124.1l3280.2,0l-1640.09,1640l-1640.11,-1640Z" style="fill:#373737;"/><path d="M6570.87,13124.1l3280.23,0l-1640.09,1640l-1640.14,-1640Z" style="fill:#373737;"/><path d="M9851.09,13124.1l3280.23,0l-1640.11,1640l-1640.11,-1640Z" style="fill:#373737;"/><path d="M13131.3,13124.1l3280.23,0l-1640.11,1640l-1640.11,-1640Z" style="fill:#373737;"/><path d="M16411.5,13124.1l3280.2,0l-1640.07,1640l-1640.14,-1640Z" style="fill:#373737;"/><path d="M19691.7,13124.1l3280.23,0l-1640.09,1640l-1640.14,-1640Z" style="fill:#373737;"/><path d="M22972,13124.1l3280.3,0l-1640.04,1640l-1640.25,-1640Z" style="fill:#373737;"/><path d="M26252.3,13124.1l3280.09,0l-1640.04,1640l-1640.04,-1640Z" style="fill:#373737;"/><path d="M29532.4,13124.1l3280.32,0l-1640.04,1640l-1640.28,-1640Z" style="fill:#373737;"/><path d="M10.44,16404.1l3280.23,-0l-1640.11,1640l-1640.11,-1640Z" style="fill:#373737;"/><path d="M3290.67,16404.1l3280.2,-0l-1640.09,1640l-1640.11,-1640Z" style="fill:#373737;"/><path d="M6570.87,16404.1l3280.23,-0l-1640.09,1640l-1640.14,-1640Z" style="fill:#373737;"/><path d="M9851.09,16404.1l3280.23,-0l-1640.11,1640l-1640.11,-1640Z" style="fill:#373737;"/><path d="M13131.3,16404.1l3280.23,-0l-1640.11,1640l-1640.11,-1640Z" style="fill:#373737;"/><path d="M16411.5,16404.1l3280.2,-0l-1640.07,1640l-1640.14,-1640Z" style="fill:#373737;"/><path d="M19691.7,16404.1l3280.23,-0l-1640.09,1640l-1640.14,-1640Z" style="fill:#373737;"/><path d="M22972,16404.1l3280.3,-0l-1640.04,1640l-1640.25,-1640Z" style="fill:#373737;"/><path d="M26252.3,16404.1l3280.09,-0l-1640.04,1640l-1640.04,-1640Z" style="fill:#373737;"/><path d="M29532.4,16404.1l3280.32,-0l-1640.04,1640l-1640.28,-1640Z" style="fill:#373737;"/><path d="M10.44,19684.1l3280.23,0l-1640.11,1640l-1640.11,-1640Z" style="fill:#373737;"/><path d="M3290.67,19684.1l3280.2,0l-1640.09,1640l-1640.11,-1640Z" style="fill:#373737;"/><path d="M6570.87,19684.1l3280.23,0l-1640.09,1640l-1640.14,-1640Z" style="fill:#373737;"/><path d="M9851.09,19684.1l3280.23,0l-1640.11,1640l-1640.11,-1640Z" style="fill:#373737;"/><path d="M13131.3,19684.1l3280.23,0l-1640.11,1640l-1640.11,-1640Z" style="fill:#373737;"/><path d="M16411.5,19684.1l3280.2,0l-1640.07,1640l-1640.14,-1640Z" style="fill:#373737;"/><path d="M19691.7,19684.1l3280.23,0l-1640.09,1640l-1640.14,-1640Z" style="fill:#373737;"/><path d="M22972,19684.1l3280.3,0l-1640.04,1640l-1640.25,-1640Z" style="fill:#373737;"/><path d="M26252.3,19684.1l3280.09,0l-1640.04,1640l-1640.04,-1640Z" style="fill:#373737;"/><path d="M29532.4,19684.1l3280.32,0l-1640.04,1640l-1640.28,-1640Z" style="fill:#373737;"/><path d="M10.44,22964.1l3280.23,0l-1640.11,1640.04l-1640.11,-1640.04Z" style="fill:#373737;"/><path d="M3290.67,22964.1l3280.2,0l-1640.09,1640.04l-1640.11,-1640.04Z" style="fill:#373737;"/><path d="M6570.87,22964.1l3280.23,0l-1640.09,1640.04l-1640.14,-1640.04Z" style="fill:#373737;"/><path d="M9851.09,22964.1l3280.23,0l-1640.11,1640.04l-1640.11,-1640.04Z" style="fill:#373737;"/><path d="M13131.3,22964.1l3280.23,0l-1640.11,1640.04l-1640.11,-1640.04Z" style="fill:#373737;"/><path d="M16411.5,22964.1l3280.2,0l-1640.07,1640.04l-1640.14,-1640.04Z" style="fill:#373737;"/><path d="M19691.7,22964.1l3280.23,0l-1640.09,1640.04l-1640.14,-1640.04Z" style="fill:#373737;"/><path d="M22972,22964.1l3280.3,0l-1640.04,1640.04l-1640.25,-1640.04Z" style="fill:#373737;"/><path d="M26252.3,22964.1l3280.09,0l-1640.04,1640.04l-1640.04,-1640.04Z" style="fill:#373737;"/><path d="M29532.4,22964.1l3280.32,0l-1640.04,1640.04l-1640.28,-1640.04Z" style="fill:#373737;"/><path d="M10.44,26244.2l3280.23,0l-1640.11,1640.04l-1640.11,-1640.04Z" style="fill:#373737;"/><path d="M3290.67,26244.2l3280.2,0l-1640.09,1640.04l-1640.11,-1640.04Z" style="fill:#373737;"/><path d="M6570.87,26244.2l3280.23,0l-1640.09,1640.04l-1640.14,-1640.04Z" style="fill:#373737;"/><path d="M9851.09,26244.2l3280.23,0l-1640.11,1640.04l-1640.11,-1640.04Z" style="fill:#373737;"/><path d="M13131.3,26244.2l3280.23,0l-1640.11,1640.04l-1640.11,-1640.04Z" style="fill:#373737;"/><path d="M16411.5,26244.2l3280.2,0l-1640.07,1640.04l-1640.14,-1640.04Z" style="fill:#373737;"/><path d="M19691.7,26244.2l3280.23,0l-1640.09,1640.04l-1640.14,-1640.04Z" style="fill:#373737;"/><path d="M22972,26244.2l3280.3,0l-1640.04,1640.04l-1640.25,-1640.04Z" style="fill:#373737;"/><path d="M26252.3,26244.2l3280.09,0l-1640.04,1640.04l-1640.04,-1640.04Z" style="fill:#373737;"/><path d="M29532.4,26244.2l3280.32,0l-1640.04,1640.04l-1640.28,-1640.04Z" style="fill:#373737;"/><path d="M10.44,29524l3280.23,-0l-1640.11,1640.04l-1640.11,-1640.04Z" style="fill:#373737;"/><path d="M3290.67,29524l3280.2,-0l-1640.09,1640.04l-1640.11,-1640.04Z" style="fill:#373737;"/><path d="M6570.87,29524l3280.23,-0l-1640.09,1640.04l-1640.14,-1640.04Z" style="fill:#373737;"/><path d="M9851.09,29524l3280.23,-0l-1640.11,1640.04l-1640.11,-1640.04Z" style="fill:#373737;"/><path d="M13131.3,29524l3280.23,-0l-1640.11,1640.04l-1640.11,-1640.04Z" style="fill:#373737;"/><path d="M16411.5,29524l3280.2,-0l-1640.07,1640.04l-1640.14,-1640.04Z" style="fill:#373737;"/><path d="M19691.7,29524l3280.23,-0l-1640.09,1640.04l-1640.14,-1640.04Z" style="fill:#373737;"/><path d="M22972,29524l3280.3,-0l-1640.04,1640.04l-1640.25,-1640.04Z" style="fill:#373737;"/><path d="M26252.3,29524l3280.09,-0l-1640.04,1640.04l-1640.04,-1640.04Z" style="fill:#373737;"/><path d="M29532.4,29524l3280.32,-0l-1640.04,1640.04l-1640.28,-1640.04Z" style="fill:#373737;"/></g><g id="Right-Arrows" serif:id="Right Arrows"><path d="M1650.55,1644.19l-1640.11,1640l-0,-3279.99l1640.11,1640Z" style="fill:#2b2b2b;"/><path d="M4930.78,1644.19l-1640.11,1640l-0,-3279.99l1640.11,1640Z" style="fill:#2b2b2b;"/><path d="M8211.01,1644.19l-1640.14,1640l0,-3279.99l1640.14,1640Z" style="fill:#2b2b2b;"/><path d="M11491.2,1644.19l-1640.11,1640l0,-3279.99l1640.11,1640Z" style="fill:#2b2b2b;"/><path d="M14771.4,1644.19l-1640.11,1640l0,-3279.99l1640.11,1640Z" style="fill:#2b2b2b;"/><path d="M18051.7,1644.19l-1640.14,1640l0,-3279.99l1640.14,1640Z" style="fill:#2b2b2b;"/><path d="M21331.9,1644.19l-1640.14,1640l-0,-3279.99l1640.14,1640Z" style="fill:#2b2b2b;"/><path d="M24612.2,1644.19l-1640.25,1640l-0,-3279.99l1640.25,1640Z" style="fill:#2b2b2b;"/><path d="M27892.3,1644.19l-1640.04,1640l0,-3279.99l1640.04,1640Z" style="fill:#2b2b2b;"/><path d="M31172.6,1644.19l-1640.28,1640l0,-3279.99l1640.28,1640Z" style="fill:#2b2b2b;"/><path d="M1650.55,4924.16l-1640.11,1640l-0,-3279.97l1640.11,1639.97Z" style="fill:#2b2b2b;"/><path d="M4930.78,4924.16l-1640.11,1640l-0,-3279.97l1640.11,1639.97Z" style="fill:#2b2b2b;"/><path d="M8211.01,4924.16l-1640.14,1640l0,-3279.97l1640.14,1639.97Z" style="fill:#2b2b2b;"/><path d="M11491.2,4924.16l-1640.11,1640l0,-3279.97l1640.11,1639.97Z" style="fill:#2b2b2b;"/><path d="M14771.4,4924.16l-1640.11,1640l0,-3279.97l1640.11,1639.97Z" style="fill:#2b2b2b;"/><path d="M18051.7,4924.16l-1640.14,1640l0,-3279.97l1640.14,1639.97Z" style="fill:#2b2b2b;"/><path d="M21331.9,4924.16l-1640.14,1640l-0,-3279.97l1640.14,1639.97Z" style="fill:#2b2b2b;"/><path d="M24612.2,4924.16l-1640.25,1640l-0,-3279.97l1640.25,1639.97Z" style="fill:#2b2b2b;"/><path d="M27892.3,4924.16l-1640.04,1640l0,-3279.97l1640.04,1639.97Z" style="fill:#2b2b2b;"/><path d="M31172.6,4924.16l-1640.28,1640l0,-3279.97l1640.28,1639.97Z" style="fill:#2b2b2b;"/><path d="M1650.55,8204.15l-1640.11,1639.97l-0,-3279.97l1640.11,1640Z" style="fill:#2b2b2b;"/><path d="M4930.78,8204.15l-1640.11,1639.97l-0,-3279.97l1640.11,1640Z" style="fill:#2b2b2b;"/><path d="M8211.01,8204.15l-1640.14,1639.97l0,-3279.97l1640.14,1640Z" style="fill:#2b2b2b;"/><path d="M11491.2,8204.15l-1640.11,1639.97l0,-3279.97l1640.11,1640Z" style="fill:#2b2b2b;"/><path d="M14771.4,8204.15l-1640.11,1639.97l0,-3279.97l1640.11,1640Z" style="fill:#2b2b2b;"/><path d="M18051.7,8204.15l-1640.14,1639.97l0,-3279.97l1640.14,1640Z" style="fill:#2b2b2b;"/><path d="M21331.9,8204.15l-1640.14,1639.97l-0,-3279.97l1640.14,1640Z" style="fill:#2b2b2b;"/><path d="M24612.2,8204.15l-1640.25,1639.97l-0,-3279.97l1640.25,1640Z" style="fill:#2b2b2b;"/><path d="M27892.3,8204.15l-1640.04,1639.97l0,-3279.97l1640.04,1640Z" style="fill:#2b2b2b;"/><path d="M31172.6,8204.15l-1640.28,1639.97l0,-3279.97l1640.28,1640Z" style="fill:#2b2b2b;"/><path d="M1650.55,11484.1l-1640.11,1639.97l-0,-3279.99l1640.11,1640.02Z" style="fill:#2b2b2b;"/><path d="M4930.78,11484.1l-1640.11,1639.97l-0,-3279.99l1640.11,1640.02Z" style="fill:#2b2b2b;"/><path d="M8211.01,11484.1l-1640.14,1639.97l0,-3279.99l1640.14,1640.02Z" style="fill:#2b2b2b;"/><path d="M11491.2,11484.1l-1640.11,1639.97l0,-3279.99l1640.11,1640.02Z" style="fill:#2b2b2b;"/><path d="M14771.4,11484.1l-1640.11,1639.97l0,-3279.99l1640.11,1640.02Z" style="fill:#2b2b2b;"/><path d="M18051.7,11484.1l-1640.14,1639.97l0,-3279.99l1640.14,1640.02Z" style="fill:#2b2b2b;"/><path d="M21331.9,11484.1l-1640.14,1639.97l-0,-3279.99l1640.14,1640.02Z" style="fill:#2b2b2b;"/><path d="M24612.2,11484.1l-1640.25,1639.97l-0,-3279.99l1640.25,1640.02Z" style="fill:#2b2b2b;"/><path d="M27892.3,11484.1l-1640.04,1639.97l0,-3279.99l1640.04,1640.02Z" style="fill:#2b2b2b;"/><path d="M31172.6,11484.1l-1640.28,1639.97l0,-3279.99l1640.28,1640.02Z" style="fill:#2b2b2b;"/><path d="M1650.55,14764.1l-1640.11,1640l-0,-3279.99l1640.11,1640Z" style="fill:#2b2b2b;"/><path d="M4930.78,14764.1l-1640.11,1640l-0,-3279.99l1640.11,1640Z" style="fill:#2b2b2b;"/><path d="M8211.01,14764.1l-1640.14,1640l0,-3279.99l1640.14,1640Z" style="fill:#2b2b2b;"/><path d="M11491.2,14764.1l-1640.11,1640l0,-3279.99l1640.11,1640Z" style="fill:#2b2b2b;"/><path d="M14771.4,14764.1l-1640.11,1640l0,-3279.99l1640.11,1640Z" style="fill:#2b2b2b;"/><path d="M18051.7,14764.1l-1640.14,1640l0,-3279.99l1640.14,1640Z" style="fill:#2b2b2b;"/><path d="M21331.9,14764.1l-1640.14,1640l-0,-3279.99l1640.14,1640Z" style="fill:#2b2b2b;"/><path d="M24612.2,14764.1l-1640.25,1640l-0,-3279.99l1640.25,1640Z" style="fill:#2b2b2b;"/><path d="M27892.3,14764.1l-1640.04,1640l0,-3279.99l1640.04,1640Z" style="fill:#2b2b2b;"/><path d="M31172.6,14764.1l-1640.28,1640l0,-3279.99l1640.28,1640Z" style="fill:#2b2b2b;"/><path d="M1650.55,18044.1l-1640.11,1640l-0,-3279.99l1640.11,1640Z" style="fill:#2b2b2b;"/><path d="M4930.78,18044.1l-1640.11,1640l-0,-3279.99l1640.11,1640Z" style="fill:#2b2b2b;"/><path d="M8211.01,18044.1l-1640.14,1640l0,-3279.99l1640.14,1640Z" style="fill:#2b2b2b;"/><path d="M11491.2,18044.1l-1640.11,1640l0,-3279.99l1640.11,1640Z" style="fill:#2b2b2b;"/><path d="M14771.4,18044.1l-1640.11,1640l0,-3279.99l1640.11,1640Z" style="fill:#2b2b2b;"/><path d="M18051.7,18044.1l-1640.14,1640l0,-3279.99l1640.14,1640Z" style="fill:#2b2b2b;"/><path d="M21331.9,18044.1l-1640.14,1640l-0,-3279.99l1640.14,1640Z" style="fill:#2b2b2b;"/><path d="M24612.2,18044.1l-1640.25,1640l-0,-3279.99l1640.25,1640Z" style="fill:#2b2b2b;"/><path d="M27892.3,18044.1l-1640.04,1640l0,-3279.99l1640.04,1640Z" style="fill:#2b2b2b;"/><path d="M31172.6,18044.1l-1640.28,1640l0,-3279.99l1640.28,1640Z" style="fill:#2b2b2b;"/><path d="M1650.55,21324.1l-1640.11,1639.97l-0,-3279.97l1640.11,1640Z" style="fill:#2b2b2b;"/><path d="M4930.78,21324.1l-1640.11,1639.97l-0,-3279.97l1640.11,1640Z" style="fill:#2b2b2b;"/><path d="M8211.01,21324.1l-1640.14,1639.97l0,-3279.97l1640.14,1640Z" style="fill:#2b2b2b;"/><path d="M11491.2,21324.1l-1640.11,1639.97l0,-3279.97l1640.11,1640Z" style="fill:#2b2b2b;"/><path d="M14771.4,21324.1l-1640.11,1639.97l0,-3279.97l1640.11,1640Z" style="fill:#2b2b2b;"/><path d="M18051.7,21324.1l-1640.14,1639.97l0,-3279.97l1640.14,1640Z" style="fill:#2b2b2b;"/><path d="M21331.9,21324.1l-1640.14,1639.97l-0,-3279.97l1640.14,1640Z" style="fill:#2b2b2b;"/><path d="M24612.2,21324.1l-1640.25,1639.97l-0,-3279.97l1640.25,1640Z" style="fill:#2b2b2b;"/><path d="M27892.3,21324.1l-1640.04,1639.97l0,-3279.97l1640.04,1640Z" style="fill:#2b2b2b;"/><path d="M31172.6,21324.1l-1640.28,1639.97l0,-3279.97l1640.28,1640Z" style="fill:#2b2b2b;"/><path d="M1650.55,24604.1l-1640.11,1640.04l-0,-3280.09l1640.11,1640.04Z" style="fill:#2b2b2b;"/><path d="M4930.78,24604.1l-1640.11,1640.04l-0,-3280.09l1640.11,1640.04Z" style="fill:#2b2b2b;"/><path d="M8211.01,24604.1l-1640.14,1640.04l0,-3280.09l1640.14,1640.04Z" style="fill:#2b2b2b;"/><path d="M11491.2,24604.1l-1640.11,1640.04l0,-3280.09l1640.11,1640.04Z" style="fill:#2b2b2b;"/><path d="M14771.4,24604.1l-1640.11,1640.04l0,-3280.09l1640.11,1640.04Z" style="fill:#2b2b2b;"/><path d="M18051.7,24604.1l-1640.14,1640.04l0,-3280.09l1640.14,1640.04Z" style="fill:#2b2b2b;"/><path d="M21331.9,24604.1l-1640.14,1640.04l-0,-3280.09l1640.14,1640.04Z" style="fill:#2b2b2b;"/><path d="M24612.2,24604.1l-1640.25,1640.04l-0,-3280.09l1640.25,1640.04Z" style="fill:#2b2b2b;"/><path d="M27892.3,24604.1l-1640.04,1640.04l0,-3280.09l1640.04,1640.04Z" style="fill:#2b2b2b;"/><path d="M31172.6,24604.1l-1640.28,1640.04l0,-3280.09l1640.28,1640.04Z" style="fill:#2b2b2b;"/><path d="M1650.55,27884.2l-1640.11,1639.81l-0,-3279.86l1640.11,1640.04Z" style="fill:#2b2b2b;"/><path d="M4930.78,27884.2l-1640.11,1639.81l-0,-3279.86l1640.11,1640.04Z" style="fill:#2b2b2b;"/><path d="M8211.01,27884.2l-1640.14,1639.81l0,-3279.86l1640.14,1640.04Z" style="fill:#2b2b2b;"/><path d="M11491.2,27884.2l-1640.11,1639.81l0,-3279.86l1640.11,1640.04Z" style="fill:#2b2b2b;"/><path d="M14771.4,27884.2l-1640.11,1639.81l0,-3279.86l1640.11,1640.04Z" style="fill:#2b2b2b;"/><path d="M18051.7,27884.2l-1640.14,1639.81l0,-3279.86l1640.14,1640.04Z" style="fill:#2b2b2b;"/><path d="M21331.9,27884.2l-1640.14,1639.81l-0,-3279.86l1640.14,1640.04Z" style="fill:#2b2b2b;"/><path d="M24612.2,27884.2l-1640.25,1639.81l-0,-3279.86l1640.25,1640.04Z" style="fill:#2b2b2b;"/><path d="M27892.3,27884.2l-1640.04,1639.81l0,-3279.86l1640.04,1640.04Z" style="fill:#2b2b2b;"/><path d="M31172.6,27884.2l-1640.28,1639.81l0,-3279.86l1640.28,1640.04Z" style="fill:#2b2b2b;"/><path d="M1650.55,31164.1l-1640.11,1640.04l-0,-3280.09l1640.11,1640.04Z" style="fill:#2b2b2b;"/><path d="M4930.78,31164.1l-1640.11,1640.04l-0,-3280.09l1640.11,1640.04Z" style="fill:#2b2b2b;"/><path d="M8211.01,31164.1l-1640.14,1640.04l0,-3280.09l1640.14,1640.04Z" style="fill:#2b2b2b;"/><path d="M11491.2,31164.1l-1640.11,1640.04l0,-3280.09l1640.11,1640.04Z" style="fill:#2b2b2b;"/><path d="M14771.4,31164.1l-1640.11,1640.04l0,-3280.09l1640.11,1640.04Z" style="fill:#2b2b2b;"/><path d="M18051.7,31164.1l-1640.14,1640.04l0,-3280.09l1640.14,1640.04Z" style="fill:#2b2b2b;"/><path d="M21331.9,31164.1l-1640.14,1640.04l-0,-3280.09l1640.14,1640.04Z" style="fill:#2b2b2b;"/><path d="M24612.2,31164.1l-1640.25,1640.04l-0,-3280.09l1640.25,1640.04Z" style="fill:#2b2b2b;"/><path d="M27892.3,31164.1l-1640.04,1640.04l0,-3280.09l1640.04,1640.04Z" style="fill:#2b2b2b;"/><path d="M31172.6,31164.1l-1640.28,1640.04l0,-3280.09l1640.28,1640.04Z" style="fill:#2b2b2b;"/></g><g id="Left-Arrows" serif:id="Left Arrows"><path d="M1650.55,1644.19l1640.11,-1640l-0,3279.99l-1640.11,-1640Z" style="fill:#111;"/><path d="M4930.78,1644.19l1640.09,-1640l0,3279.99l-1640.09,-1640Z" style="fill:#111;"/><path d="M8211.01,1644.19l1640.09,-1640l0,3279.99l-1640.09,-1640Z" style="fill:#111;"/><path d="M11491.2,1644.19l1640.11,-1640l0,3279.99l-1640.11,-1640Z" style="fill:#111;"/><path d="M14771.4,1644.19l1640.11,-1640l0,3279.99l-1640.11,-1640Z" style="fill:#111;"/><path d="M18051.7,1644.19l1640.07,-1640l-0,3279.99l-1640.07,-1640Z" style="fill:#111;"/><path d="M21331.9,1644.19l1640.09,-1640l-0,3279.99l-1640.09,-1640Z" style="fill:#111;"/><path d="M24612.2,1644.19l1640.04,-1640l0,3279.99l-1640.04,-1640Z" style="fill:#111;"/><path d="M27892.3,1644.19l1640.04,-1640l0,3279.99l-1640.04,-1640Z" style="fill:#111;"/><path d="M31172.6,1644.19l1640.04,-1640l-0,3279.99l-1640.04,-1640Z" style="fill:#111;"/><path d="M1650.55,4924.16l1640.11,-1639.97l-0,3279.97l-1640.11,-1640Z" style="fill:#111;"/><path d="M4930.78,4924.16l1640.09,-1639.97l0,3279.97l-1640.09,-1640Z" style="fill:#111;"/><path d="M8211.01,4924.16l1640.09,-1639.97l0,3279.97l-1640.09,-1640Z" style="fill:#111;"/><path d="M11491.2,4924.16l1640.11,-1639.97l0,3279.97l-1640.11,-1640Z" style="fill:#111;"/><path d="M14771.4,4924.16l1640.11,-1639.97l0,3279.97l-1640.11,-1640Z" style="fill:#111;"/><path d="M18051.7,4924.16l1640.07,-1639.97l-0,3279.97l-1640.07,-1640Z" style="fill:#111;"/><path d="M21331.9,4924.16l1640.09,-1639.97l-0,3279.97l-1640.09,-1640Z" style="fill:#111;"/><path d="M24612.2,4924.16l1640.04,-1639.97l0,3279.97l-1640.04,-1640Z" style="fill:#111;"/><path d="M27892.3,4924.16l1640.04,-1639.97l0,3279.97l-1640.04,-1640Z" style="fill:#111;"/><path d="M31172.6,4924.16l1640.04,-1639.97l-0,3279.97l-1640.04,-1640Z" style="fill:#111;"/><path d="M1650.55,8204.15l1640.11,-1640l-0,3279.97l-1640.11,-1639.97Z" style="fill:#111;"/><path d="M4930.78,8204.15l1640.09,-1640l0,3279.97l-1640.09,-1639.97Z" style="fill:#111;"/><path d="M8211.01,8204.15l1640.09,-1640l0,3279.97l-1640.09,-1639.97Z" style="fill:#111;"/><path d="M11491.2,8204.15l1640.11,-1640l0,3279.97l-1640.11,-1639.97Z" style="fill:#111;"/><path d="M14771.4,8204.15l1640.11,-1640l0,3279.97l-1640.11,-1639.97Z" style="fill:#111;"/><path d="M18051.7,8204.15l1640.07,-1640l-0,3279.97l-1640.07,-1639.97Z" style="fill:#111;"/><path d="M21331.9,8204.15l1640.09,-1640l-0,3279.97l-1640.09,-1639.97Z" style="fill:#111;"/><path d="M24612.2,8204.15l1640.04,-1640l0,3279.97l-1640.04,-1639.97Z" style="fill:#111;"/><path d="M27892.3,8204.15l1640.04,-1640l0,3279.97l-1640.04,-1639.97Z" style="fill:#111;"/><path d="M31172.6,8204.15l1640.04,-1640l-0,3279.97l-1640.04,-1639.97Z" style="fill:#111;"/><path d="M1650.55,11484.1l1640.11,-1640.02l-0,3279.99l-1640.11,-1639.97Z" style="fill:#111;"/><path d="M4930.78,11484.1l1640.09,-1640.02l0,3279.99l-1640.09,-1639.97Z" style="fill:#111;"/><path d="M8211.01,11484.1l1640.09,-1640.02l0,3279.99l-1640.09,-1639.97Z" style="fill:#111;"/><path d="M11491.2,11484.1l1640.11,-1640.02l0,3279.99l-1640.11,-1639.97Z" style="fill:#111;"/><path d="M14771.4,11484.1l1640.11,-1640.02l0,3279.99l-1640.11,-1639.97Z" style="fill:#111;"/><path d="M18051.7,11484.1l1640.07,-1640.02l-0,3279.99l-1640.07,-1639.97Z" style="fill:#111;"/><path d="M21331.9,11484.1l1640.09,-1640.02l-0,3279.99l-1640.09,-1639.97Z" style="fill:#111;"/><path d="M24612.2,11484.1l1640.04,-1640.02l0,3279.99l-1640.04,-1639.97Z" style="fill:#111;"/><path d="M27892.3,11484.1l1640.04,-1640.02l0,3279.99l-1640.04,-1639.97Z" style="fill:#111;"/><path d="M31172.6,11484.1l1640.04,-1640.02l-0,3279.99l-1640.04,-1639.97Z" style="fill:#111;"/><path d="M1650.55,14764.1l1640.11,-1640l-0,3279.99l-1640.11,-1640Z" style="fill:#111;"/><path d="M4930.78,14764.1l1640.09,-1640l0,3279.99l-1640.09,-1640Z" style="fill:#111;"/><path d="M8211.01,14764.1l1640.09,-1640l0,3279.99l-1640.09,-1640Z" style="fill:#111;"/><path d="M11491.2,14764.1l1640.11,-1640l0,3279.99l-1640.11,-1640Z" style="fill:#111;"/><path d="M14771.4,14764.1l1640.11,-1640l0,3279.99l-1640.11,-1640Z" style="fill:#111;"/><path d="M18051.7,14764.1l1640.07,-1640l-0,3279.99l-1640.07,-1640Z" style="fill:#111;"/><path d="M21331.9,14764.1l1640.09,-1640l-0,3279.99l-1640.09,-1640Z" style="fill:#111;"/><path d="M24612.2,14764.1l1640.04,-1640l0,3279.99l-1640.04,-1640Z" style="fill:#111;"/><path d="M27892.3,14764.1l1640.04,-1640l0,3279.99l-1640.04,-1640Z" style="fill:#111;"/><path d="M31172.6,14764.1l1640.04,-1640l-0,3279.99l-1640.04,-1640Z" style="fill:#111;"/><path d="M1650.55,18044.1l1640.11,-1640l-0,3279.99l-1640.11,-1640Z" style="fill:#111;"/><path d="M4930.78,18044.1l1640.09,-1640l0,3279.99l-1640.09,-1640Z" style="fill:#111;"/><path d="M8211.01,18044.1l1640.09,-1640l0,3279.99l-1640.09,-1640Z" style="fill:#111;"/><path d="M11491.2,18044.1l1640.11,-1640l0,3279.99l-1640.11,-1640Z" style="fill:#111;"/><path d="M14771.4,18044.1l1640.11,-1640l0,3279.99l-1640.11,-1640Z" style="fill:#111;"/><path d="M18051.7,18044.1l1640.07,-1640l-0,3279.99l-1640.07,-1640Z" style="fill:#111;"/><path d="M21331.9,18044.1l1640.09,-1640l-0,3279.99l-1640.09,-1640Z" style="fill:#111;"/><path d="M24612.2,18044.1l1640.04,-1640l0,3279.99l-1640.04,-1640Z" style="fill:#111;"/><path d="M27892.3,18044.1l1640.04,-1640l0,3279.99l-1640.04,-1640Z" style="fill:#111;"/><path d="M31172.6,18044.1l1640.04,-1640l-0,3279.99l-1640.04,-1640Z" style="fill:#111;"/><path d="M1650.55,21324.1l1640.11,-1640l-0,3279.97l-1640.11,-1639.97Z" style="fill:#111;"/><path d="M4930.78,21324.1l1640.09,-1640l0,3279.97l-1640.09,-1639.97Z" style="fill:#111;"/><path d="M8211.01,21324.1l1640.09,-1640l0,3279.97l-1640.09,-1639.97Z" style="fill:#111;"/><path d="M11491.2,21324.1l1640.11,-1640l0,3279.97l-1640.11,-1639.97Z" style="fill:#111;"/><path d="M14771.4,21324.1l1640.11,-1640l0,3279.97l-1640.11,-1639.97Z" style="fill:#111;"/><path d="M18051.7,21324.1l1640.07,-1640l-0,3279.97l-1640.07,-1639.97Z" style="fill:#111;"/><path d="M21331.9,21324.1l1640.09,-1640l-0,3279.97l-1640.09,-1639.97Z" style="fill:#111;"/><path d="M24612.2,21324.1l1640.04,-1640l0,3279.97l-1640.04,-1639.97Z" style="fill:#111;"/><path d="M27892.3,21324.1l1640.04,-1640l0,3279.97l-1640.04,-1639.97Z" style="fill:#111;"/><path d="M31172.6,21324.1l1640.04,-1640l-0,3279.97l-1640.04,-1639.97Z" style="fill:#111;"/><path d="M1650.55,24604.1l1640.11,-1640.04l-0,3280.09l-1640.11,-1640.04Z" style="fill:#111;"/><path d="M4930.78,24604.1l1640.09,-1640.04l0,3280.09l-1640.09,-1640.04Z" style="fill:#111;"/><path d="M8211.01,24604.1l1640.09,-1640.04l0,3280.09l-1640.09,-1640.04Z" style="fill:#111;"/><path d="M11491.2,24604.1l1640.11,-1640.04l0,3280.09l-1640.11,-1640.04Z" style="fill:#111;"/><path d="M14771.4,24604.1l1640.11,-1640.04l0,3280.09l-1640.11,-1640.04Z" style="fill:#111;"/><path d="M18051.7,24604.1l1640.07,-1640.04l-0,3280.09l-1640.07,-1640.04Z" style="fill:#111;"/><path d="M21331.9,24604.1l1640.09,-1640.04l-0,3280.09l-1640.09,-1640.04Z" style="fill:#111;"/><path d="M24612.2,24604.1l1640.04,-1640.04l0,3280.09l-1640.04,-1640.04Z" style="fill:#111;"/><path d="M27892.3,24604.1l1640.04,-1640.04l0,3280.09l-1640.04,-1640.04Z" style="fill:#111;"/><path d="M31172.6,24604.1l1640.04,-1640.04l-0,3280.09l-1640.04,-1640.04Z" style="fill:#111;"/><path d="M1650.55,27884.2l1640.11,-1640.04l-0,3279.86l-1640.11,-1639.81Z" style="fill:#111;"/><path d="M4930.78,27884.2l1640.09,-1640.04l0,3279.86l-1640.09,-1639.81Z" style="fill:#111;"/><path d="M8211.01,27884.2l1640.09,-1640.04l0,3279.86l-1640.09,-1639.81Z" style="fill:#111;"/><path d="M11491.2,27884.2l1640.11,-1640.04l0,3279.86l-1640.11,-1639.81Z" style="fill:#111;"/><path d="M14771.4,27884.2l1640.11,-1640.04l0,3279.86l-1640.11,-1639.81Z" style="fill:#111;"/><path d="M18051.7,27884.2l1640.07,-1640.04l-0,3279.86l-1640.07,-1639.81Z" style="fill:#111;"/><path d="M21331.9,27884.2l1640.09,-1640.04l-0,3279.86l-1640.09,-1639.81Z" style="fill:#111;"/><path d="M24612.2,27884.2l1640.04,-1640.04l0,3279.86l-1640.04,-1639.81Z" style="fill:#111;"/><path d="M27892.3,27884.2l1640.04,-1640.04l0,3279.86l-1640.04,-1639.81Z" style="fill:#111;"/><path d="M31172.6,27884.2l1640.04,-1640.04l-0,3279.86l-1640.04,-1639.81Z" style="fill:#111;"/><path d="M1650.55,31164.1l1640.11,-1640.04l-0,3280.09l-1640.11,-1640.04Z" style="fill:#111;"/><path d="M4930.78,31164.1l1640.09,-1640.04l0,3280.09l-1640.09,-1640.04Z" style="fill:#111;"/><path d="M8211.01,31164.1l1640.09,-1640.04l0,3280.09l-1640.09,-1640.04Z" style="fill:#111;"/><path d="M11491.2,31164.1l1640.11,-1640.04l0,3280.09l-1640.11,-1640.04Z" style="fill:#111;"/><path d="M14771.4,31164.1l1640.11,-1640.04l0,3280.09l-1640.11,-1640.04Z" style="fill:#111;"/><path d="M18051.7,31164.1l1640.07,-1640.04l-0,3280.09l-1640.07,-1640.04Z" style="fill:#111;"/><path d="M21331.9,31164.1l1640.09,-1640.04l-0,3280.09l-1640.09,-1640.04Z" style="fill:#111;"/><path d="M24612.2,31164.1l1640.04,-1640.04l0,3280.09l-1640.04,-1640.04Z" style="fill:#111;"/><path d="M27892.3,31164.1l1640.04,-1640.04l0,3280.09l-1640.04,-1640.04Z" style="fill:#111;"/><path d="M31172.6,31164.1l1640.04,-1640.04l-0,3280.09l-1640.04,-1640.04Z" style="fill:#111;"/></g><g id="Up-Arrows" serif:id="Up Arrows"><path d="M3290.67,3284.18l-1640.11,-1640l-1640.11,1640l3280.23,0Z"/><path d="M6570.87,3284.18l-1640.09,-1640l-1640.11,1640l3280.2,0Z"/><path d="M9851.09,3284.18l-1640.09,-1640l-1640.14,1640l3280.23,0Z"/><path d="M13131.3,3284.18l-1640.11,-1640l-1640.11,1640l3280.23,0Z"/><path d="M16411.5,3284.18l-1640.11,-1640l-1640.11,1640l3280.23,0Z"/><path d="M19691.7,3284.18l-1640.07,-1640l-1640.14,1640l3280.2,0Z"/><path d="M22972,3284.18l-1640.09,-1640l-1640.14,1640l3280.23,0Z"/><path d="M26252.3,3284.18l-1640.04,-1640l-1640.25,1640l3280.3,0Z"/><path d="M29532.4,3284.18l-1640.04,-1640l-1640.04,1640l3280.09,0Z"/><path d="M32812.7,3284.18l-1640.04,-1640l-1640.28,1640l3280.32,0Z"/><path d="M3290.67,6564.16l-1640.11,-1640l-1640.11,1640l3280.23,-0Z"/><path d="M6570.87,6564.16l-1640.09,-1640l-1640.11,1640l3280.2,-0Z"/><path d="M9851.09,6564.16l-1640.09,-1640l-1640.14,1640l3280.23,-0Z"/><path d="M13131.3,6564.16l-1640.11,-1640l-1640.11,1640l3280.23,-0Z"/><path d="M16411.5,6564.16l-1640.11,-1640l-1640.11,1640l3280.23,-0Z"/><path d="M19691.7,6564.16l-1640.07,-1640l-1640.14,1640l3280.2,-0Z"/><path d="M22972,6564.16l-1640.09,-1640l-1640.14,1640l3280.23,-0Z"/><path d="M26252.3,6564.16l-1640.04,-1640l-1640.25,1640l3280.3,-0Z"/><path d="M29532.4,6564.16l-1640.04,-1640l-1640.04,1640l3280.09,-0Z"/><path d="M32812.7,6564.16l-1640.04,-1640l-1640.28,1640l3280.32,-0Z"/><path d="M3290.67,9844.13l-1640.11,-1639.97l-1640.11,1639.97l3280.23,-0Z"/><path d="M6570.87,9844.13l-1640.09,-1639.97l-1640.11,1639.97l3280.2,-0Z"/><path d="M9851.09,9844.13l-1640.09,-1639.97l-1640.14,1639.97l3280.23,-0Z"/><path d="M13131.3,9844.13l-1640.11,-1639.97l-1640.11,1639.97l3280.23,-0Z"/><path d="M16411.5,9844.13l-1640.11,-1639.97l-1640.11,1639.97l3280.23,-0Z"/><path d="M19691.7,9844.13l-1640.07,-1639.97l-1640.14,1639.97l3280.2,-0Z"/><path d="M22972,9844.13l-1640.09,-1639.97l-1640.14,1639.97l3280.23,-0Z"/><path d="M26252.3,9844.13l-1640.04,-1639.97l-1640.25,1639.97l3280.3,-0Z"/><path d="M29532.4,9844.13l-1640.04,-1639.97l-1640.04,1639.97l3280.09,-0Z"/><path d="M32812.7,9844.13l-1640.04,-1639.97l-1640.28,1639.97l3280.32,-0Z"/><path d="M3290.67,13124.1l-1640.11,-1639.97l-1640.11,1639.97l3280.23,0Z"/><path d="M6570.87,13124.1l-1640.09,-1639.97l-1640.11,1639.97l3280.2,0Z"/><path d="M9851.09,13124.1l-1640.09,-1639.97l-1640.14,1639.97l3280.23,0Z"/><path d="M13131.3,13124.1l-1640.11,-1639.97l-1640.11,1639.97l3280.23,0Z"/><path d="M16411.5,13124.1l-1640.11,-1639.97l-1640.11,1639.97l3280.23,0Z"/><path d="M19691.7,13124.1l-1640.07,-1639.97l-1640.14,1639.97l3280.2,0Z"/><path d="M22972,13124.1l-1640.09,-1639.97l-1640.14,1639.97l3280.23,0Z"/><path d="M26252.3,13124.1l-1640.04,-1639.97l-1640.25,1639.97l3280.3,0Z"/><path d="M29532.4,13124.1l-1640.04,-1639.97l-1640.04,1639.97l3280.09,0Z"/><path d="M32812.7,13124.1l-1640.04,-1639.97l-1640.28,1639.97l3280.32,0Z"/><path d="M3290.67,16404.1l-1640.11,-1640l-1640.11,1640l3280.23,-0Z"/><path d="M6570.87,16404.1l-1640.09,-1640l-1640.11,1640l3280.2,-0Z"/><path d="M9851.09,16404.1l-1640.09,-1640l-1640.14,1640l3280.23,-0Z"/><path d="M13131.3,16404.1l-1640.11,-1640l-1640.11,1640l3280.23,-0Z"/><path d="M16411.5,16404.1l-1640.11,-1640l-1640.11,1640l3280.23,-0Z"/><path d="M19691.7,16404.1l-1640.07,-1640l-1640.14,1640l3280.2,-0Z"/><path d="M22972,16404.1l-1640.09,-1640l-1640.14,1640l3280.23,-0Z"/><path d="M26252.3,16404.1l-1640.04,-1640l-1640.25,1640l3280.3,-0Z"/><path d="M29532.4,16404.1l-1640.04,-1640l-1640.04,1640l3280.09,-0Z"/><path d="M32812.7,16404.1l-1640.04,-1640l-1640.28,1640l3280.32,-0Z"/><path d="M3290.67,19684.1l-1640.11,-1640l-1640.11,1640l3280.23,0Z"/><path d="M6570.87,19684.1l-1640.09,-1640l-1640.11,1640l3280.2,0Z"/><path d="M9851.09,19684.1l-1640.09,-1640l-1640.14,1640l3280.23,0Z"/><path d="M13131.3,19684.1l-1640.11,-1640l-1640.11,1640l3280.23,0Z"/><path d="M16411.5,19684.1l-1640.11,-1640l-1640.11,1640l3280.23,0Z"/><path d="M19691.7,19684.1l-1640.07,-1640l-1640.14,1640l3280.2,0Z"/><path d="M22972,19684.1l-1640.09,-1640l-1640.14,1640l3280.23,0Z"/><path d="M26252.3,19684.1l-1640.04,-1640l-1640.25,1640l3280.3,0Z"/><path d="M29532.4,19684.1l-1640.04,-1640l-1640.04,1640l3280.09,0Z"/><path d="M32812.7,19684.1l-1640.04,-1640l-1640.28,1640l3280.32,0Z"/><path d="M3290.67,22964.1l-1640.11,-1639.97l-1640.11,1639.97l3280.23,0Z"/><path d="M6570.87,22964.1l-1640.09,-1639.97l-1640.11,1639.97l3280.2,0Z"/><path d="M9851.09,22964.1l-1640.09,-1639.97l-1640.14,1639.97l3280.23,0Z"/><path d="M13131.3,22964.1l-1640.11,-1639.97l-1640.11,1639.97l3280.23,0Z"/><path d="M16411.5,22964.1l-1640.11,-1639.97l-1640.11,1639.97l3280.23,0Z"/><path d="M19691.7,22964.1l-1640.07,-1639.97l-1640.14,1639.97l3280.2,0Z"/><path d="M22972,22964.1l-1640.09,-1639.97l-1640.14,1639.97l3280.23,0Z"/><path d="M26252.3,22964.1l-1640.04,-1639.97l-1640.25,1639.97l3280.3,0Z"/><path d="M29532.4,22964.1l-1640.04,-1639.97l-1640.04,1639.97l3280.09,0Z"/><path d="M32812.7,22964.1l-1640.04,-1639.97l-1640.28,1639.97l3280.32,0Z"/><path d="M3290.67,26244.2l-1640.11,-1640.04l-1640.11,1640.04l3280.23,0Z"/><path d="M6570.87,26244.2l-1640.09,-1640.04l-1640.11,1640.04l3280.2,0Z"/><path d="M9851.09,26244.2l-1640.09,-1640.04l-1640.14,1640.04l3280.23,0Z"/><path d="M13131.3,26244.2l-1640.11,-1640.04l-1640.11,1640.04l3280.23,0Z"/><path d="M16411.5,26244.2l-1640.11,-1640.04l-1640.11,1640.04l3280.23,0Z"/><path d="M19691.7,26244.2l-1640.07,-1640.04l-1640.14,1640.04l3280.2,0Z"/><path d="M22972,26244.2l-1640.09,-1640.04l-1640.14,1640.04l3280.23,0Z"/><path d="M26252.3,26244.2l-1640.04,-1640.04l-1640.25,1640.04l3280.3,0Z"/><path d="M29532.4,26244.2l-1640.04,-1640.04l-1640.04,1640.04l3280.09,0Z"/><path d="M32812.7,26244.2l-1640.04,-1640.04l-1640.28,1640.04l3280.32,0Z"/><path d="M3290.67,29524l-1640.11,-1639.81l-1640.11,1639.81l3280.23,-0Z"/><path d="M6570.87,29524l-1640.09,-1639.81l-1640.11,1639.81l3280.2,-0Z"/><path d="M9851.09,29524l-1640.09,-1639.81l-1640.14,1639.81l3280.23,-0Z"/><path d="M13131.3,29524l-1640.11,-1639.81l-1640.11,1639.81l3280.23,-0Z"/><path d="M16411.5,29524l-1640.11,-1639.81l-1640.11,1639.81l3280.23,-0Z"/><path d="M19691.7,29524l-1640.07,-1639.81l-1640.14,1639.81l3280.2,-0Z"/><path d="M22972,29524l-1640.09,-1639.81l-1640.14,1639.81l3280.23,-0Z"/><path d="M26252.3,29524l-1640.04,-1639.81l-1640.25,1639.81l3280.3,-0Z"/><path d="M29532.4,29524l-1640.04,-1639.81l-1640.04,1639.81l3280.09,-0Z"/><path d="M32812.7,29524l-1640.04,-1639.81l-1640.28,1639.81l3280.32,-0Z"/><path d="M3290.67,32804.1l-1640.11,-1640.04l-1640.11,1640.04l3280.23,-0Z"/><path d="M6570.87,32804.1l-1640.09,-1640.04l-1640.11,1640.04l3280.2,-0Z"/><path d="M9851.09,32804.1l-1640.09,-1640.04l-1640.14,1640.04l3280.23,-0Z"/><path d="M13131.3,32804.1l-1640.11,-1640.04l-1640.11,1640.04l3280.23,-0Z"/><path d="M16411.5,32804.1l-1640.11,-1640.04l-1640.11,1640.04l3280.23,-0Z"/><path d="M19691.7,32804.1l-1640.07,-1640.04l-1640.14,1640.04l3280.2,-0Z"/><path d="M22972,32804.1l-1640.09,-1640.04l-1640.14,1640.04l3280.23,-0Z"/><path d="M26252.3,32804.1l-1640.04,-1640.04l-1640.25,1640.04l3280.3,-0Z"/><path d="M29532.4,32804.1l-1640.04,-1640.04l-1640.04,1640.04l3280.09,-0Z"/><path d="M32812.7,32804.1l-1640.04,-1640.04l-1640.28,1640.04l3280.32,-0Z"/></g></g></svg>