<svg xmlns="http://www.w3.org/2000/svg" viewBox="0 0 47.14 48.77"><defs><style>.cls-1{fill:#ff8800;}.cls-2{fill:#ffffff;}</style></defs><g id="Layer_2" data-name="Layer 2"><g id="Layer_1-2" data-name="Layer 1"><path class="cls-1" d="M13.58,10.65c-4.16,3.66-8,7.06-11.89,10.49A4.57,4.57,0,0,0,0,24.87c.16,5.65,0,11.31.32,16.94.3,5,8.1,8.61,12.67,6.19,1.1-.58,1-1.5,1-2.41C13.87,33.88,13.72,22.18,13.58,10.65Z"/><path class="cls-2" d="M30.86,29.71h0c0,5.45,0,10.86,0,16.26,0,1.94-.77,2.53-3.25,2.64-11.14.45-11.13.53-11.13-8.36V9.82L30.86,0Z"/><path class="cls-1" d="M33.36,10.67c4.2,3.62,8.13,7,12,10.36a4.56,4.56,0,0,1,1.73,3.72c-.08,5.64.17,11.3-.1,16.94-.24,5-8,8.69-12.6,6.32-1.11-.57-1-1.49-1-2.4C33.35,33.91,33.36,22.2,33.36,10.67Z"/></g></g></svg>